<?xml version="1.0" encoding="UTF-8"?>
<!DOCTYPE svg PUBLIC "-//W3C//DTD SVG 1.1//EN" "http://www.w3.org/Graphics/SVG/1.1/DTD/svg11.dtd">
<svg xmlns="http://www.w3.org/2000/svg" version="1.1" width="512px" height="512px" style="shape-rendering:geometricPrecision; text-rendering:geometricPrecision; image-rendering:optimizeQuality; fill-rule:evenodd; clip-rule:evenodd" xmlns:xlink="http://www.w3.org/1999/xlink">
<g><path style="opacity:0.968" fill="#f55ec8" d="M 273.5,147.5 C 261.487,150.129 249.487,150.129 237.5,147.5C 210.049,139.881 192.882,122.215 186,94.5C 180.281,56.766 194.448,29.5994 228.5,13C 255.99,3.2372 280.99,7.57053 303.5,26C 327.004,50.1728 332.504,78.0061 320,109.5C 310.056,128.942 294.556,141.609 273.5,147.5 Z M 248.5,44.5 C 273.174,43.0076 287.174,54.5076 290.5,79C 286.888,103.142 272.888,114.475 248.5,113C 231.385,108.117 222.052,96.7838 220.5,79C 222.178,61.0819 231.511,49.5819 248.5,44.5 Z"/></g>
<g><path style="opacity:0.974" fill="#6345b1" d="M 237.5,147.5 C 249.487,150.129 261.487,150.129 273.5,147.5C 273.5,177.5 273.5,207.5 273.5,237.5C 320.168,237.333 366.835,237.5 413.5,238C 437.47,242.638 452.304,256.804 458,280.5C 459.408,308.141 459.908,335.808 459.5,363.5C 447.149,360.943 434.816,360.943 422.5,363.5C 422.667,337.831 422.5,312.165 422,286.5C 419.762,279.93 415.262,275.763 408.5,274C 363.501,273.5 318.501,273.333 273.5,273.5C 273.5,303.5 273.5,333.5 273.5,363.5C 261.487,360.871 249.487,360.871 237.5,363.5C 237.5,333.5 237.5,303.5 237.5,273.5C 192.499,273.333 147.499,273.5 102.5,274C 95.738,275.763 91.238,279.93 89,286.5C 88.5,312.165 88.3334,337.831 88.5,363.5C 76.1491,360.943 63.8158,360.943 51.5,363.5C 51.0916,335.808 51.5916,308.141 53,280.5C 58.6964,256.804 73.5298,242.638 97.5,238C 144.165,237.5 190.832,237.333 237.5,237.5C 237.5,207.5 237.5,177.5 237.5,147.5 Z"/></g>
<g><path style="opacity:0.97" fill="#f55ec8" d="M 88.5,363.5 C 121.631,374.222 139.298,397.056 141.5,432C 138.8,469.695 119.134,493.029 82.5,502C 38.4048,505.632 10.7382,486.132 -0.5,443.5C -0.5,435.833 -0.5,428.167 -0.5,420.5C 5.62382,391.372 22.9571,372.372 51.5,363.5C 63.8158,360.943 76.1491,360.943 88.5,363.5 Z M 63.5,397.5 C 83.9871,396.152 97.4871,405.152 104,424.5C 106.62,445.78 97.7864,459.613 77.5,466C 56.0868,468.213 42.2535,459.047 36,438.5C 34.218,417.377 43.3847,403.711 63.5,397.5 Z"/></g>
<g><path style="opacity:0.968" fill="#f55ec8" d="M 273.5,363.5 C 300.951,371.119 318.118,388.785 325,416.5C 330.719,454.234 316.552,481.401 282.5,498C 255.01,507.763 230.01,503.429 207.5,485C 183.996,460.827 178.496,432.994 191,401.5C 200.944,382.058 216.444,369.391 237.5,363.5C 249.487,360.871 261.487,360.871 273.5,363.5 Z M 248.5,397.5 C 272.865,396.502 286.865,408.002 290.5,432C 287.198,456.641 273.198,467.975 248.5,466C 231.401,461.169 222.068,449.836 220.5,432C 222.162,414.133 231.495,402.633 248.5,397.5 Z"/></g>
<g><path style="opacity:0.97" fill="#f55ec8" d="M 459.5,363.5 C 488.043,372.372 505.376,391.372 511.5,420.5C 511.5,428.167 511.5,435.833 511.5,443.5C 500.262,486.132 472.595,505.632 428.5,502C 391.866,493.029 372.2,469.695 369.5,432C 371.702,397.056 389.369,374.222 422.5,363.5C 434.816,360.943 447.149,360.943 459.5,363.5 Z M 433.5,397.5 C 454.907,395.776 468.74,405.11 475,425.5C 476.843,445.98 468.01,459.48 448.5,466C 427.22,468.62 413.387,459.786 407,439.5C 404.484,418.175 413.318,404.175 433.5,397.5 Z"/></g>
</svg>
