<svg width="32" height="32" viewBox="0 0 32 32" fill="none" xmlns="http://www.w3.org/2000/svg">
<rect width="32" height="32" rx="16" fill="black"/>
<path d="M16.0332 27.5531L16.0347 23.5999C15.6364 23.5999 15.235 23.5681 14.8421 23.5053L14.2288 27.4105C14.8236 27.5051 15.4307 27.5531 16.034 27.5531H16.0332ZM17.8376 27.4121C18.4339 27.3175 19.0264 27.1756 19.5996 26.9888L18.39 23.2278C18.0125 23.351 17.6211 23.4448 17.2274 23.5069L17.8376 27.4121ZM12.466 26.9865L13.6787 23.2262C13.3004 23.103 12.9298 22.948 12.5762 22.7666L10.7903 26.2881C11.3272 26.564 11.8912 26.7989 12.466 26.9865ZM21.2746 26.2927C21.8124 26.0175 22.3324 25.6967 22.8209 25.3393L20.5088 22.1426C20.1875 22.3782 19.8454 22.5891 19.4918 22.7697L21.2746 26.2927ZM9.24471 25.3331L11.5592 22.1379C11.2394 21.9038 10.9343 21.6403 10.6508 21.3558L7.87023 24.1494L7.87253 24.1518C8.29936 24.5812 8.76088 24.9789 9.24471 25.3331ZM24.1769 24.1758L24.2008 24.151C24.6261 23.7231 25.0206 23.2596 25.3734 22.7735L22.1984 20.4442C21.9657 20.7651 21.7045 21.0721 21.4225 21.3566L21.3833 21.3969L22.7192 22.6658L24.1769 24.1758ZM6.69451 22.7658L9.87109 20.4388C9.63689 20.1156 9.42732 19.7714 9.24702 19.4156L5.74608 21.2101C6.01959 21.7504 6.33856 22.2736 6.69451 22.765V22.7658ZM26.3234 21.2178C26.5977 20.6775 26.8311 20.1101 27.0183 19.5319L23.2809 18.311C23.1584 18.6916 23.0043 19.0644 22.824 19.4202L26.3234 21.2178ZM5.05344 19.5233L8.7917 18.3056C8.66918 17.9258 8.57596 17.532 8.51354 17.1359L4.632 17.7514C4.72599 18.3513 4.86776 18.9474 5.05344 19.5241V19.5233ZM27.4406 17.7599C27.5346 17.1615 27.5823 16.5506 27.5831 15.9445L23.6538 15.9422C23.6538 16.3429 23.6222 16.7467 23.5598 17.1429L27.4406 17.7599ZM8.42032 15.936C8.42032 15.5352 8.45192 15.1306 8.51354 14.7352L4.632 14.1198C4.538 14.7182 4.49101 15.329 4.49023 15.9352H8.41957L8.42032 15.936ZM23.5613 14.7414L27.4429 14.1283C27.3497 13.5283 27.2079 12.9322 27.023 12.3555L23.284 13.571C23.4065 13.9516 23.4997 14.3446 23.5613 14.7407V14.7414ZM8.7917 13.5663C8.91419 13.1857 9.06827 12.8121 9.2478 12.4563L5.74685 10.6611C5.47334 11.2013 5.23989 11.7687 5.05344 12.347L8.79092 13.5663H8.7917ZM22.8286 12.4617L26.3311 10.6696C26.0576 10.1285 25.7386 9.60529 25.3834 9.11385L22.2053 11.4393C22.4388 11.7625 22.6483 12.1067 22.8286 12.4625V12.4617ZM9.87264 11.4331C10.1061 11.1106 10.368 10.8021 10.6516 10.5177L10.6593 10.5099L7.881 7.7147L7.87331 7.72245C7.44648 8.15189 7.05046 8.61776 6.69682 9.10532L9.87264 11.4331ZM21.4364 10.5316L22.2754 9.67041L24.2069 7.72786L24.2008 7.72167C23.7763 7.29456 23.3163 6.89847 22.834 6.54422L20.518 9.73783C20.837 9.97195 21.1413 10.2339 21.4225 10.5177L21.4364 10.5316ZM11.5684 9.72931C11.8897 9.49444 12.2318 9.28359 12.5854 9.10299L10.8049 5.57916C10.2671 5.85434 9.74705 6.17447 9.2586 6.53182L11.5684 9.72931ZM19.5018 9.10918L21.29 5.58923C20.753 5.31328 20.1898 5.07763 19.615 4.89005L18.4 8.64953C18.7783 8.77354 19.1489 8.9278 19.5025 9.10996L19.5018 9.10918ZM13.6887 8.64489C14.067 8.5224 14.4584 8.4286 14.8513 8.36659L14.2434 4.46062C13.6479 4.55441 13.0546 4.69626 12.4814 4.88307L13.6887 8.64489ZM17.2374 8.36893L17.8522 4.46371C17.2575 4.36915 16.6503 4.32031 16.0478 4.32031L16.044 8.27357C16.4423 8.27357 16.8437 8.30614 17.2374 8.36893Z" fill="white"/>
<path d="M16.036 23.7754V19.8022C15.7041 19.8022 15.3729 19.7586 15.0527 19.6737L14.0274 23.5121C14.6818 23.6866 15.3573 23.7754 16.036 23.7754ZM18.0446 23.5121C18.7014 23.3368 19.3333 23.0758 19.9207 22.7362L17.9324 19.2959C17.6464 19.461 17.3395 19.588 17.02 19.6729L18.0446 23.5121ZM12.1504 22.7354L14.1395 19.2959C13.8544 19.1307 13.5903 18.9274 13.3534 18.6913L13.3168 18.6555L12.0616 19.9767L10.5213 21.478L10.5438 21.4998C11.0253 21.9813 11.5661 22.3965 12.1512 22.7354H12.1504ZM21.5281 21.5014H21.5289C22.0096 21.0191 22.4249 20.4792 22.763 19.8949L19.3239 17.9052C19.1587 18.1904 18.9554 18.4545 18.7193 18.6905L21.5281 21.5014ZM9.30424 19.8864L12.7465 17.9013C12.5813 17.6154 12.4551 17.3085 12.3701 16.9883L8.52978 18.0096C8.7043 18.6664 8.9653 19.2982 9.30424 19.8864ZM23.5406 18.0198C23.7151 17.3653 23.804 16.6899 23.8047 16.0113L19.8312 16.0098C19.8312 16.3425 19.7875 16.6735 19.7018 16.9937L23.5406 18.0198ZM12.2423 16.0051C12.2423 15.6725 12.286 15.3413 12.3725 15.0212L8.53444 13.9928C8.35914 14.6472 8.26953 15.3227 8.26953 16.0012L12.2431 16.0051H12.2423ZM19.7026 15.0258L23.5422 14.0029C23.3669 13.3462 23.1058 12.7144 22.7669 12.127L19.3255 14.1136C19.4907 14.3995 19.6177 14.7064 19.7026 15.0258ZM12.7503 14.1089C12.9132 13.8276 13.1142 13.5667 13.3464 13.3329L13.3565 13.3228L11.9354 11.9018L10.5688 10.4925L10.5438 10.5166C10.0639 10.9965 9.64938 11.5349 9.31202 12.1176L12.7503 14.1089ZM18.7217 13.3275L20.1288 11.9205L21.5647 10.5525L21.5289 10.5159C21.0489 10.036 20.509 9.62072 19.9254 9.28261L17.9347 12.7214C18.216 12.8842 18.4778 13.0852 18.7115 13.3173L18.7217 13.3275ZM14.1419 12.719C14.4271 12.5539 14.734 12.4277 15.0542 12.342L14.032 8.50279C13.3744 8.67806 12.7433 8.93828 12.1551 9.27794L14.1419 12.719ZM17.0224 12.3435L18.05 8.50512C17.3956 8.32982 16.72 8.24101 16.0414 8.24023L16.0391 12.2134C16.3718 12.2134 16.7029 12.2571 17.0231 12.3428L17.0224 12.3435Z" fill="white"/>
</svg>
